<svg xmlns="http://www.w3.org/2000/svg" viewBox="0 0 258.63 131.97"><defs><style>.cls-1{fill:#1cade4;}.cls-2,.cls-5{fill:none;stroke-linecap:round;stroke-linejoin:round;stroke-width:1.75px;}.cls-2{stroke:#117ea7;}.cls-3{fill:#fff;}.cls-4{fill:#a1acb2;}.cls-5{stroke:#65757d;}.cls-6{fill:#387a4b;}</style></defs><g id="レイヤー_2" data-name="レイヤー 2"><g id="レイヤー_1-2" data-name="レイヤー 1"><rect class="cls-1" x="74.64" y="0.88" width="103.74" height="54.24"/><rect class="cls-2" x="74.64" y="0.88" width="103.74" height="54.24"/><path class="cls-3" d="M108.19,18.19V19h-.77V14.52a9,9,0,0,1-.86,1.35l-.48-.38a12.2,12.2,0,0,0,1.82-4.84h-1.33V10h3.79v.64h-1.6a10.26,10.26,0,0,1-.65,2.38h2v5.16Zm1.11-4.53h-1.12v3.89h1.12Zm5.47,4.94h2.12v.67h-4.58v.4h-.87V14.54c-.23.25-.49.5-.77.76l-.5-.48A8.73,8.73,0,0,0,111.7,13a8.24,8.24,0,0,0,.81-1.77h-1.23v1h-.74V10.61h2.13a10.68,10.68,0,0,0,.18-1.06l.87.08c0,.22-.08.54-.16,1h3.16v1.63H116v-1h-2.6a9.46,9.46,0,0,1-.93,2H114c.19-.53.33-.94.41-1.22l.84.09-.52,1.13h2.14v.64h-2.12v1.07h1.73v.63h-1.73V16.7h1.73v.64h-1.73Zm-2.46-4.75v1.07h1.61V13.85Zm0,2.85h1.61V15.55h-1.61Zm0,1.9h1.61V17.34h-1.61Zm10.11,1.12V17.77h-4.67v-.68h4.67v-.67h.91v.67h4.74v.68h-4.74v1.95Zm-4.19-3.48-.32-.69a14.89,14.89,0,0,0,2.54-1.36l.3.6a11.33,11.33,0,0,1-1.17.74A12.54,12.54,0,0,1,118.23,16.24Zm6.36-.43c-1,.13-2.36.24-4,.34l-.08-.66.82,0c.31-.32.66-.72,1-1.19a22.33,22.33,0,0,0-1.69-1.71l.55-.48.29.26a12.66,12.66,0,0,0,.82-1.24h-4.42v-.67h4.5V9.59h.89v.84h4.56v.67h-4.63A13.25,13.25,0,0,1,122,12.79l.87.87a16.41,16.41,0,0,0,1.15-1.6l.75.35a30.42,30.42,0,0,1-2.51,3c.82-.05,1.5-.11,2-.17-.16-.3-.3-.57-.43-.79l.64-.27a16.54,16.54,0,0,1,1.09,1.95l-.73.25c0-.09-.13-.28-.28-.57Zm-5-2.24q-.41-.44-1.5-1.38l.55-.52A13.52,13.52,0,0,1,120.15,13Zm8-1.61a12.76,12.76,0,0,1-1.69,1.66l-.51-.43a13.08,13.08,0,0,0,1.46-1.65l.74.42Zm-.11,4.42a7.34,7.34,0,0,0-.94-.79l-1-.75.49-.52c.18.1.51.33,1,.68s.81.62,1,.79Zm8.35,2.67q-.41.11-5.75.57l-.14-.72,1.61-.11V16.66a15.76,15.76,0,0,1-2.49,1l-.29-.6a13.33,13.33,0,0,0,4.38-2.37h-4V14h4.61V12.87h-3.88V12.2h3.88V11.13h-4.3v-.67h4.3V9.62h.87v.84H139v.67h-4.43V12.2h3.86v.67h-3.86V14h4.74v.69H135a7.7,7.7,0,0,0,1.26,2,12.44,12.44,0,0,0,2-1.43l.65.55a16.26,16.26,0,0,1-2.14,1.4,9.32,9.32,0,0,0,2.9,1.75l-.53.66a8.52,8.52,0,0,1-4.93-4.75,11.8,11.8,0,0,1-1.77,1.32v2.54c1.63-.14,2.77-.26,3.41-.35v.69Z"/><path class="cls-3" d="M145.77,19h-4.42v-.76h1.73V12.51h-1.73v-.67a2.77,2.77,0,0,0,1.45-.29,1.14,1.14,0,0,0,.49-.9h.78v7.57h1.7Z"/><path class="cls-3" d="M96.76,24.29a15.44,15.44,0,0,1-.53,4,6.24,6.24,0,0,1-2,3.23,7.15,7.15,0,0,1-3.77,1.55l-.17-.83A6.4,6.4,0,0,0,94,30.42c1-1,1.64-2.79,1.75-5.32H90.13v-.81Zm-.6-.51a1.06,1.06,0,0,1,.37-.83,1.18,1.18,0,0,1,.85-.34,1.19,1.19,0,0,1,.88.35,1.16,1.16,0,0,1,0,1.68,1.25,1.25,0,0,1-.84.34,1.21,1.21,0,0,1-1.24-1.2Zm1.22.8a.75.75,0,0,0,.56-.23.77.77,0,0,0,.24-.56.76.76,0,0,0-.23-.55.78.78,0,0,0-.57-.24.84.84,0,0,0-.8.79.77.77,0,0,0,.24.56A.76.76,0,0,0,97.38,24.58Zm8,8.1H99v-8h6.4Zm-.93-.77V25.39H99.93v6.52ZM109.88,24a17,17,0,0,1-.8,5.28,9.5,9.5,0,0,1-2.1,3.47l-.63-.59a8.61,8.61,0,0,0,.89-1.17,8.49,8.49,0,0,0,.67-1.27,13.32,13.32,0,0,0,.52-1.42,10.84,10.84,0,0,0,.35-1.8,24.65,24.65,0,0,0,.16-2.5Zm5,8-.72.62a9.72,9.72,0,0,1-1.3-2.36,12.68,12.68,0,0,1-.82-3.29,26,26,0,0,1-.23-3.06h.92v.09a19.37,19.37,0,0,0,.48,4.44A9.08,9.08,0,0,0,114.89,32.07Zm-1.66-7.91a1.08,1.08,0,0,1,.36-.83,1.27,1.27,0,0,1,1.74,0,1.12,1.12,0,0,1,.34.81,1.1,1.1,0,0,1-.37.87,1.21,1.21,0,0,1-.83.34,1.18,1.18,0,0,1-.89-.36A1.14,1.14,0,0,1,113.23,24.16Zm1.21.8a.81.81,0,0,0,.57-.23.72.72,0,0,0,.24-.55.78.78,0,0,0-.24-.57.79.79,0,0,0-.57-.23.78.78,0,0,0-.54.23.76.76,0,0,0-.24.56.78.78,0,0,0,.23.55A.77.77,0,0,0,114.44,25ZM121,28.39a7.26,7.26,0,0,1-.29,2.21,3.29,3.29,0,0,1-1.07,1.51,5,5,0,0,1-2.15,1l-.3-.77a3.84,3.84,0,0,0,2.12-1.11,3.89,3.89,0,0,0,.71-2.59V28h-3.9v-.81h8.11V28H121ZM123.54,25h-6.79v-.79h6.79Zm4.81,8.22h-.9V29.13a8.94,8.94,0,0,1-2.34,1.23l-.28-.71a7.93,7.93,0,0,0,2.82-1.8,8,8,0,0,0,1.74-2.49l.87.32a8.63,8.63,0,0,1-1,1.71,8.54,8.54,0,0,1-.88,1Z"/><path class="cls-3" d="M137.34,32.57l-.86-2.37h-3.6L132,32.57h-1l3.08-8.31h1.31l3.07,8.31Zm-1.16-3.23-1.5-4.09-1.49,4.09Zm14.34-.1-6.36,2.83v-.92l5.11-2.22-5.11-2.21V25.8l6.36,2.83Zm12.49-5-2.88,4.11,2.87,4.2h-1.19l-2.31-3.48-2.36,3.48H156l2.91-4.15-2.84-4.16h1.19l2.27,3.43,2.34-3.43Z"/><path class="cls-3" d="M101.17,46.3a3.83,3.83,0,0,1-2.93-1.13,4.48,4.48,0,0,1-1-3.17,4.46,4.46,0,0,1,1.07-3.17,3.79,3.79,0,0,1,2.91-1.15,5.91,5.91,0,0,1,2.75.75v1.2h-.08a4.19,4.19,0,0,0-2.73-1.08,2.56,2.56,0,0,0-2.08.91A3.8,3.8,0,0,0,98.26,42,3.76,3.76,0,0,0,99,44.52a2.62,2.62,0,0,0,2.08.91,4,4,0,0,0,1.33-.23,4.47,4.47,0,0,0,1.39-.87h.08v1.21a7.49,7.49,0,0,1-1.65.63A4.9,4.9,0,0,1,101.17,46.3Zm6.41,0a2.64,2.64,0,0,1-2.1-.88,3.5,3.5,0,0,1-.77-2.4,3.56,3.56,0,0,1,.78-2.42,2.63,2.63,0,0,1,2.09-.89,2.66,2.66,0,0,1,2.1.89,4.13,4.13,0,0,1,0,4.83A2.65,2.65,0,0,1,107.58,46.32ZM109.45,43c0-1.65-.62-2.48-1.87-2.48a1.61,1.61,0,0,0-1.38.64,3.66,3.66,0,0,0,0,3.66,1.63,1.63,0,0,0,1.38.63,1.65,1.65,0,0,0,1.39-.63,3,3,0,0,0,.48-1.82ZM117,46.15h-1V45.4a3.51,3.51,0,0,1-2.17.92,1.85,1.85,0,0,1-1.49-.6,2.57,2.57,0,0,1-.52-1.73V39.91h1v3.51a2.73,2.73,0,0,0,.32,1.59,1.3,1.3,0,0,0,1.05.39,2.93,2.93,0,0,0,1.84-.8V39.91h1Zm7,0h-1v-3.5a2.75,2.75,0,0,0-.32-1.6,1.25,1.25,0,0,0-1-.4,2.93,2.93,0,0,0-1.84.81v4.69h-1V39.91h1v.75a3.37,3.37,0,0,1,2.17-.93,1.89,1.89,0,0,1,1.49.61,2.58,2.58,0,0,1,.52,1.75Zm5,0a5.07,5.07,0,0,1-1.23.16c-1.28,0-1.93-.71-1.93-2.12V40.71h-.71v-.8h.72V38.12h1v1.79H129v.8h-2.19v2.88a3.72,3.72,0,0,0,.14,1.28.88.88,0,0,0,.41.42,1.6,1.6,0,0,0,.71.14,2.5,2.5,0,0,0,.9-.2h0v.88Zm6-.35a6.11,6.11,0,0,1-2.2.53,3.31,3.31,0,0,1-2.42-.84,3.18,3.18,0,0,1-.86-2.38,3.46,3.46,0,0,1,.83-2.43,2.77,2.77,0,0,1,2.18-.91,2.47,2.47,0,0,1,1.91.74,3,3,0,0,1,.69,2.11v.54h-4.61a2.31,2.31,0,0,0,.61,1.73,2.29,2.29,0,0,0,1.68.6,3.72,3.72,0,0,0,2.15-.74h0v1Zm-4.48-3.38h3.66q0-1.86-1.71-1.86a1.9,1.9,0,0,0-1.36.5A2.09,2.09,0,0,0,130.58,42.38Zm6,3.77V39.91h1v1a3.53,3.53,0,0,1,2.16-1,4.23,4.23,0,0,1,.7.06v1h0a4.22,4.22,0,0,0-.93-.11,3,3,0,0,0-1.89.8v4.48Z"/><path class="cls-3" d="M143.37,41.42h-1.26V39.91h1.26Zm0,4.73h-1.26V44.64h1.26Z"/><path class="cls-3" d="M155.2,46.15h-4.43v-.76h1.74V39.67h-1.74V39a2.81,2.81,0,0,0,1.46-.29,1.14,1.14,0,0,0,.49-.9h.78v7.59h1.7Z"/><rect class="cls-4" x="154.1" y="86.36" width="103.65" height="43.29"/><rect class="cls-5" x="154.1" y="86.36" width="103.65" height="43.29"/><path class="cls-3" d="M187.64,105v.76h-.78v-4.42a8,8,0,0,1-.86,1.34l-.47-.38a12.34,12.34,0,0,0,1.81-4.83H186v-.65h3.79v.65h-1.6a10.32,10.32,0,0,1-.65,2.37h1.95V105Zm1.1-4.53h-1.11v3.89h1.11Zm5.47,4.94h2.12v.67h-4.58v.41h-.87v-5.14c-.23.25-.49.51-.77.76l-.49-.48a9.4,9.4,0,0,0,1.53-1.82,8.24,8.24,0,0,0,.8-1.77h-1.23v1H190V97.43h2.12a6.91,6.91,0,0,0,.18-1.06l.87.08c0,.22-.08.55-.16,1h3.16v1.63h-.74v-1h-2.6a9.06,9.06,0,0,1-.93,2h1.57q.28-.81.42-1.23l.84.1-.53,1.13h2.14v.63h-2.12v1.07h1.73v.63h-1.73v1.15h1.73v.64h-1.73Zm-2.46-4.75v1.07h1.61v-1.07Zm0,2.85h1.61v-1.15h-1.61Zm0,1.9h1.61v-1.26h-1.61Zm10.11,1.12v-2H197.2v-.67h4.66v-.68h.91v.68h4.75v.67h-4.75v2Zm-4.19-3.48-.31-.69a15.25,15.25,0,0,0,2.53-1.36l.3.6a10.31,10.31,0,0,1-1.16.74A12.48,12.48,0,0,1,197.67,103.06Zm6.37-.42c-1,.12-2.36.23-4,.33l-.08-.66.82,0c.31-.32.66-.72,1.05-1.19a22.05,22.05,0,0,0-1.68-1.71l.55-.47.28.25a12.66,12.66,0,0,0,.82-1.24h-4.42v-.66h4.5v-.85h.89v.85h4.56v.66H202.7a13.29,13.29,0,0,1-1.25,1.7l.87.87a19.53,19.53,0,0,0,1.14-1.61l.75.36a31.36,31.36,0,0,1-2.5,3c.81,0,1.49-.1,2-.17-.17-.3-.31-.56-.44-.78L204,101a14.79,14.79,0,0,1,1.09,2l-.73.24c0-.09-.13-.28-.27-.56Zm-5-2.25q-.42-.44-1.5-1.38l.54-.52a14.62,14.62,0,0,1,1.53,1.32Zm8-1.61a12.19,12.19,0,0,1-1.68,1.66l-.52-.43a13.08,13.08,0,0,0,1.46-1.65l.74.42Zm-.11,4.42a7.56,7.56,0,0,0-.94-.78l-1-.75.5-.53c.18.1.5.33,1,.68s.81.62,1,.8Zm8.36,2.67c-.28.07-2.19.26-5.76.58l-.14-.73,1.61-.11v-2.13a14.77,14.77,0,0,1-2.48,1l-.3-.59a13.43,13.43,0,0,0,4.38-2.38h-4v-.69h4.61V99.69H209.3V99h3.88V98h-4.3v-.67h4.3v-.84h.87v.84h4.43V98h-4.43V99h3.86v.67h-3.86v1.16h4.75v.69h-4.39a7.67,7.67,0,0,0,1.25,1.95,13.12,13.12,0,0,0,2-1.43l.64.56a16.4,16.4,0,0,1-2.13,1.4,9.32,9.32,0,0,0,2.89,1.74l-.53.66a8.55,8.55,0,0,1-4.93-4.75,11.31,11.31,0,0,1-1.77,1.32v2.55q2.44-.23,3.42-.36v.69Z"/><path class="cls-3" d="M222.59,106a5.94,5.94,0,0,1-2.43-.52v-1.11h.09a4.19,4.19,0,0,0,2.32.74,2,2,0,0,0,1.41-.48,1.71,1.71,0,0,0,.53-1.33,1.41,1.41,0,0,0-.46-1.17,2.39,2.39,0,0,0-1.5-.38h-.49v-.85h.38a2.26,2.26,0,0,0,1.4-.38,1.25,1.25,0,0,0,.51-1.07,1,1,0,0,0-.45-.9,2.06,2.06,0,0,0-1.22-.31,4.05,4.05,0,0,0-2.22.72h-.06V97.85a5.34,5.34,0,0,1,2.31-.52,3.21,3.21,0,0,1,2,.54,1.71,1.71,0,0,1,.7,1.45,1.76,1.76,0,0,1-.47,1.2,2,2,0,0,1-1.17.67v.09a1.94,1.94,0,0,1,1.81,2.09,2.38,2.38,0,0,1-.83,1.87,3.14,3.14,0,0,1-2.15.74Z"/><path class="cls-3" d="M187.22,120.19h-1.09a7.83,7.83,0,0,1,0-10.27h1.09v0a6.46,6.46,0,0,0-1.48,2,7,7,0,0,0-.67,3,7.11,7.11,0,0,0,.67,3,6.42,6.42,0,0,0,1.48,2Zm1.18-.29-.3-.56a14.14,14.14,0,0,0,4-1.79h-3.52v-.63H193v-.82h-3.24v-2.66h-1.17v-.6h1.17V112h.87v.82h2v-.66h.83v.66h2.26v-.66h.83v.66h1.73v.6h-1.73v1.3h-3.92v-1.3h-2v2h7.13v.62H193.9v.82h4.63v.63H194.8a13.67,13.67,0,0,0,4.1,1.7l-.36.64a11.62,11.62,0,0,1-2.63-1,8.81,8.81,0,0,1-2-1.29v2.43H193l0-2.39a10.63,10.63,0,0,1-2.13,1.28A13.41,13.41,0,0,1,188.4,119.9Zm7.37-8.53v.47H195v-.47h-2.91v.52h-.81v-.52h-2.82v-.64h2.82v-.61h.81v.61H195v-.61h.8v.61h2.86v.64Zm0,2.07h-2.26v.78h2.26Zm10.38-2.56a12.12,12.12,0,0,1-1.89,6,7,7,0,0,1-4.24,2.86l-.32-.82a6.44,6.44,0,0,0,2.92-1.58,7.4,7.4,0,0,0,1.83-2.95,12.49,12.49,0,0,0,.71-3.61Zm8.83,4.86h-7.37v-.82H215Zm4-2.39a20.45,20.45,0,0,1,4.8,2.61l-.47.77a13.92,13.92,0,0,0-2.11-1.45,14.25,14.25,0,0,0-2.23-1.06V120h-1V110.3h1v3Zm2.06-2.43a12.14,12.14,0,0,1,.84,1.54l-.63.28a15.42,15.42,0,0,0-.8-1.54l.59-.28Zm1.36-.24a13,13,0,0,1,.84,1.55l-.63.26a11.29,11.29,0,0,0-.79-1.52l.58-.29Zm3.22-.77a7.83,7.83,0,0,1,0,10.27h-1.08v0a6.59,6.59,0,0,0,1.47-2,7.14,7.14,0,0,0,0-6.08,6.67,6.67,0,0,0-1.47-2v-.06Z"/><rect class="cls-4" x="0.88" y="87.89" width="103.65" height="43.21"/><rect class="cls-5" x="0.88" y="87.89" width="103.65" height="43.21"/><path class="cls-3" d="M34.34,106.5v.76h-.77v-4.43a8.3,8.3,0,0,1-.87,1.35l-.47-.38A12.35,12.35,0,0,0,34.05,99H32.71v-.65h3.8V99h-1.6a10.05,10.05,0,0,1-.65,2.37h2v5.17ZM35.45,102H34.33v3.9h1.12Zm5.48,4.94h2.12v.68H38.46v.4H37.6v-5.14c-.24.25-.49.5-.78.76l-.49-.48a9.4,9.4,0,0,0,1.53-1.82,8.05,8.05,0,0,0,.8-1.78H37.44v1H36.7V98.91h2.13A8,8,0,0,0,39,97.85l.88.08c0,.22-.09.55-.16,1h3.16v1.64h-.74v-1h-2.6a9.31,9.31,0,0,1-.93,2h1.56q.3-.8.42-1.23l.84.1-.52,1.13h2.14v.64H40.93v1.07h1.73v.63H40.93V105h1.73v.63H40.93Zm-2.47-4.75v1.07h1.61v-1.07Zm0,2.86h1.61v-1.16H38.46Zm0,1.89h1.61v-1.26H38.46ZM48.57,108v-2H43.9v-.68h4.67v-.68h.91v.68h4.76v.68H49.48v2Zm-4.2-3.49-.31-.69a15.27,15.27,0,0,0,2.54-1.36l.3.6a11.33,11.33,0,0,1-1.17.74A12.48,12.48,0,0,1,44.37,104.55Zm6.38-.42c-1,.12-2.36.23-4,.33l-.08-.66.82,0c.31-.32.66-.72,1-1.19a22.27,22.27,0,0,0-1.69-1.72l.56-.47.28.25a12.52,12.52,0,0,0,.82-1.23H44.08v-.67h4.51v-.85h.89v.85h4.57v.67H49.41a13.92,13.92,0,0,1-1.25,1.69L49,102a19.56,19.56,0,0,0,1.14-1.6l.75.35a30.08,30.08,0,0,1-2.5,3c.81,0,1.49-.11,2-.17-.16-.3-.31-.57-.44-.79l.65-.27a17.64,17.64,0,0,1,1.09,2l-.73.24c0-.09-.13-.28-.28-.56Zm-5-2.26q-.4-.42-1.5-1.38l.55-.52a15.71,15.71,0,0,1,1.53,1.33Zm8-1.61A11.6,11.6,0,0,1,52,101.92l-.52-.43A11.77,11.77,0,0,0,53,99.85l.74.41Zm-.11,4.43a7.56,7.56,0,0,0-.94-.78l-1-.76.5-.53q.27.16,1,.69c.47.35.81.62,1,.79ZM62,107.37q-.4.1-5.76.57l-.14-.72,1.61-.12V105a14.87,14.87,0,0,1-2.49,1l-.3-.59A13.48,13.48,0,0,0,59.28,103h-4v-.69h4.62v-1.17H56v-.67h3.88V99.43H55.58v-.67h4.31v-.84h.87v.84H65.2v.67H60.76v1.07h3.87v.67H60.76v1.17h4.75V103H61.12a7.67,7.67,0,0,0,1.25,2,12.17,12.17,0,0,0,2-1.43l.65.55a15.55,15.55,0,0,1-2.14,1.41,9.37,9.37,0,0,0,2.9,1.74l-.53.67a8.54,8.54,0,0,1-4.93-4.76,11.93,11.93,0,0,1-1.78,1.32V107q2.45-.21,3.42-.36v.7Z"/><path class="cls-3" d="M72.4,107.3H66.83v-1.08c.59-.5,1.25-1.09,2-1.77a11.34,11.34,0,0,0,1.64-1.78,2.7,2.7,0,0,0,.53-1.53,1.31,1.31,0,0,0-.45-1.06,1.85,1.85,0,0,0-1.22-.38,4,4,0,0,0-2.23.72h0V99.34a5.35,5.35,0,0,1,2.31-.53,3,3,0,0,1,2,.61,2.07,2.07,0,0,1,.72,1.66,3.22,3.22,0,0,1-.18,1.08,3.66,3.66,0,0,1-.58,1,11.91,11.91,0,0,1-.94,1c-.36.37-1.2,1.11-2.51,2.22H72.4Z"/><path class="cls-3" d="M33.92,121.7H32.83a7.83,7.83,0,0,1,0-10.27h1.09v0a6.59,6.59,0,0,0-1.47,2,7.14,7.14,0,0,0,0,6.08,6.59,6.59,0,0,0,1.47,2Zm1.18-.29-.29-.56a13.69,13.69,0,0,0,3.95-1.79H35.24v-.63h4.49v-.82H36.49V115H35.31v-.6h1.18v-.81h.86v.81h2v-.65h.84v.65h2.25v-.65h.83v.65H45v.6H43.27v1.3H39.35V115h-2v2h7.13v.62H40.6v.82h4.63v.63H41.5a13.38,13.38,0,0,0,4.11,1.7l-.37.64a11.62,11.62,0,0,1-2.63-1,8.72,8.72,0,0,1-2-1.29v2.44h-.83l0-2.4a10.74,10.74,0,0,1-2.14,1.28A12,12,0,0,1,35.1,121.41Zm7.37-8.53v.47h-.8v-.47H38.76v.52H38v-.52H35.13v-.63H38v-.62h.81v.62h2.91v-.62h.8v.62h2.86v.63Zm0,2.07H40.19v.78h2.25Zm10.39-2.56a12.22,12.22,0,0,1-1.9,6,7,7,0,0,1-4.24,2.86l-.31-.82a6.41,6.41,0,0,0,2.91-1.58,7.4,7.4,0,0,0,1.83-3,12.45,12.45,0,0,0,.72-3.61Zm8.82,4.86H54.29v-.81h7.36Zm4-2.39a20.45,20.45,0,0,1,4.8,2.61l-.46.77a14,14,0,0,0-2.12-1.45,14.25,14.25,0,0,0-2.23-1.06v5.74h-1v-9.65h1v3Zm2.06-2.43a12.14,12.14,0,0,1,.84,1.54l-.63.28a14.48,14.48,0,0,0-.8-1.54l.59-.28Zm1.37-.23a14.47,14.47,0,0,1,.83,1.54l-.63.26a11.93,11.93,0,0,0-.79-1.52l.59-.28Zm3.22-.78a7.92,7.92,0,0,1,1.91,5.14,7.84,7.84,0,0,1-1.91,5.13H71.23v0a6.53,6.53,0,0,0,1.48-2,7.25,7.25,0,0,0,0-6.09,6.53,6.53,0,0,0-1.48-2v-.06Z"/><path class="cls-6" d="M54.74,83.59l-2.12,4.24-2.13-4.24Zm72.07-28.51V71.45a.36.36,0,0,1-.35.36H52.62l.35-.36V84.29a.36.36,0,1,1-.71,0V71.45a.36.36,0,0,1,.36-.35h73.84l-.36.35V55.08a.36.36,0,1,1,.71,0Z"/><path class="cls-6" d="M203.78,82.08l2.12,4.24L208,82.08Zm-77.66-27V71.51a.34.34,0,0,0,.35.35H205.9l-.36-.35V82.79a.36.36,0,0,0,.36.35.35.35,0,0,0,.35-.35V71.51a.35.35,0,0,0-.35-.35H126.47l.35.35V55.08a.35.35,0,1,0-.7,0Z"/></g></g></svg>