<svg xmlns="http://www.w3.org/2000/svg" viewBox="0 0 111.4 112.34"><defs><style>.cls-1{fill:#fff;}.cls-2{fill:none;stroke:#000;stroke-linecap:square;stroke-linejoin:round;stroke-width:0.14px;}</style></defs><g id="レイヤー_2" data-name="レイヤー 2"><g id="レイヤー_1-2" data-name="レイヤー 1"><rect class="cls-1" x="0.49" y="0.49" width="110.54" height="111.48"/><path d="M69.41,9.6v.68H66.59v8.07H65.8V10.28H63V9.6ZM77,9.6v.68H74.15v8.07h-.79V10.28H70.55V9.6Z"/><path d="M41.93,37.44v.68H39.11v8.07h-.79V38.12H35.51v-.68Zm2.72,0V45.5h4.46v.69H43.86V37.44Z"/><polygon points="73.13 37.44 73.13 38.12 70.31 38.12 70.31 46.19 69.52 46.19 69.52 38.12 66.71 38.12 66.71 37.44 73.13 37.44"/><path d="M96.77,37.44v.68H94v8.07h-.79V38.12H90.35v-.68Zm1.93,0h2.87c2,0,3,.75,3,2.24a2,2,0,0,1-.55,1.47,2.52,2.52,0,0,1-1.37.73l2.14,4.31h-.87l-2-4.19H99.48v4.18H98.7Zm.78.66v3.26h2c1.5,0,2.26-.55,2.26-1.67a1.36,1.36,0,0,0-.57-1.23,3,3,0,0,0-1.62-.36Z"/><path d="M9.71,65.28v8.06h4.46V74H8.92V65.28Zm7.2,0v8.06h4.46V74H16.12V65.28Z"/><polygon points="40.94 65.28 40.94 73.34 45.39 73.34 45.39 74.03 40.14 74.03 40.14 65.28 40.94 65.28"/><path d="M73.14,65.28l-2.78,4.2,3,4.55h-.92l-2.14-3.36c-.16-.26-.28-.46-.37-.59l-.37.6L67.41,74h-.89l2.92-4.53-2.71-4.22h.91l1.91,3,.39.61c.06-.08.13-.19.22-.33s.15-.25.18-.3l1.92-3Z"/><path d="M94.86,65.28h2.87c2,0,3,.75,3,2.24a2,2,0,0,1-.55,1.47,2.52,2.52,0,0,1-1.37.73L100.9,74H100l-2-4.19H95.64V74h-.78Zm.78.66V69.2h2c1.5,0,2.26-.55,2.26-1.67a1.36,1.36,0,0,0-.57-1.23,3,3,0,0,0-1.62-.36Z"/><path d="M36.06,93.12h2.8a3.44,3.44,0,0,1,2.3.62,1.92,1.92,0,0,1,.58,1.51,1.74,1.74,0,0,1-.61,1.37,2.65,2.65,0,0,1-1.37.58v.06A2.67,2.67,0,0,1,41.5,98,2,2,0,0,1,42,99.43a2.16,2.16,0,0,1-.91,1.88,3.51,3.51,0,0,1-2.08.56h-3Zm.78.66v3.13h1.71a3,3,0,0,0,1.85-.5,1.36,1.36,0,0,0,.53-1.12,1.31,1.31,0,0,0-.54-1.19,3.24,3.24,0,0,0-1.64-.32Zm0,3.79v3.63h2.08c1.51,0,2.27-.6,2.27-1.79A1.56,1.56,0,0,0,40.44,98a3.33,3.33,0,0,0-1.85-.45ZM45,93.12v8.06h4.46v.69H44.22V93.12Z"/><path d="M67.26,93.12h2.8a3.44,3.44,0,0,1,2.3.62,1.92,1.92,0,0,1,.58,1.51,1.74,1.74,0,0,1-.61,1.37A2.65,2.65,0,0,1,71,97.2v.06A2.67,2.67,0,0,1,72.7,98a2,2,0,0,1,.52,1.39,2.16,2.16,0,0,1-.91,1.88,3.51,3.51,0,0,1-2.08.56h-3Zm.78.66v3.13h1.71a3,3,0,0,0,1.85-.5,1.36,1.36,0,0,0,.53-1.12,1.31,1.31,0,0,0-.54-1.19A3.24,3.24,0,0,0,70,93.78Zm0,3.79v3.63h2.08c1.51,0,2.27-.6,2.27-1.79A1.56,1.56,0,0,0,71.64,98a3.33,3.33,0,0,0-1.85-.45Z"/><path d="M90.78,93.12h2.8a3.44,3.44,0,0,1,2.3.62,1.92,1.92,0,0,1,.58,1.51,1.74,1.74,0,0,1-.61,1.37,2.65,2.65,0,0,1-1.37.58v.06a2.67,2.67,0,0,1,1.74.78,2,2,0,0,1,.52,1.39,2.16,2.16,0,0,1-.91,1.88,3.51,3.51,0,0,1-2.08.56h-3Zm.78.66v3.13h1.71a3,3,0,0,0,1.85-.5,1.36,1.36,0,0,0,.53-1.12,1.31,1.31,0,0,0-.54-1.19,3.24,3.24,0,0,0-1.64-.32Zm0,3.79v3.63h2.08c1.51,0,2.27-.6,2.27-1.79A1.56,1.56,0,0,0,95.16,98a3.33,3.33,0,0,0-1.85-.45Zm7.38-4.45h2.87c2,0,3,.75,3,2.24a2,2,0,0,1-.55,1.47,2.52,2.52,0,0,1-1.37.73l2.14,4.31h-.87l-2-4.19H99.72v4.18h-.78Zm.78.66V97h2c1.5,0,2.26-.55,2.26-1.67a1.36,1.36,0,0,0-.57-1.23,3,3,0,0,0-1.62-.36Z"/><line class="cls-2" x1="0.07" y1="0.07" x2="0.07" y2="112.27"/><rect x="0.01" y="0.01" width="0.96" height="112.32"/><line class="cls-2" x1="27.69" y1="1.03" x2="27.69" y2="112.27"/><rect x="27.63" y="0.97" width="0.96" height="111.36"/><line class="cls-2" x1="55.29" y1="1.03" x2="55.29" y2="112.27"/><rect x="55.23" y="0.97" width="0.96" height="111.36"/><line class="cls-2" x1="82.89" y1="1.03" x2="82.89" y2="112.27"/><rect x="82.83" y="0.97" width="0.96" height="111.36"/><line class="cls-2" x1="110.49" y1="1.03" x2="110.49" y2="112.27"/><rect x="110.43" y="0.97" width="0.96" height="111.36"/><line class="cls-2" x1="1.03" y1="0.07" x2="111.33" y2="0.07"/><rect x="0.97" y="0.01" width="110.42" height="0.96"/><line class="cls-2" x1="1.03" y1="27.91" x2="111.33" y2="27.91"/><rect x="0.97" y="27.85" width="110.42" height="0.96"/><line class="cls-2" x1="1.03" y1="55.75" x2="111.33" y2="55.75"/><rect x="0.97" y="55.69" width="110.42" height="0.96"/><line class="cls-2" x1="1.03" y1="83.59" x2="111.33" y2="83.59"/><rect x="0.97" y="83.53" width="110.42" height="0.96"/><line class="cls-2" x1="1.03" y1="111.43" x2="111.33" y2="111.43"/><rect x="0.97" y="111.37" width="110.42" height="0.96"/></g></g></svg>