<svg xmlns="http://www.w3.org/2000/svg" viewBox="0 0 56.2 56.66"><defs><style>.cls-1{fill:#fff;}.cls-2{fill:none;stroke:#000;stroke-linecap:square;stroke-linejoin:round;stroke-width:0.14px;}</style></defs><g id="レイヤー_2" data-name="レイヤー 2"><g id="レイヤー_1-2" data-name="レイヤー 1"><rect class="cls-1" x="0.49" y="0.49" width="55.34" height="55.8"/><path d="M14.31,9.6v.68H11.49v8.07H10.7V10.28H7.89V9.6ZM17,9.6v8.06h4.46v.69H16.24V9.6Z"/><polygon points="45.53 9.6 45.53 10.28 42.71 10.28 42.71 18.35 41.92 18.35 41.92 10.28 39.11 10.28 39.11 9.6 45.53 9.6"/><polygon points="13.31 37.44 13.31 45.5 17.77 45.5 17.77 46.19 12.52 46.19 12.52 37.44 13.31 37.44"/><path d="M45.54,37.44l-2.78,4.2,3,4.55h-.92l-2.14-3.36c-.16-.26-.28-.46-.37-.59l-.37.6-2.1,3.35h-.89l2.92-4.53-2.71-4.22H40l1.91,3,.39.61.22-.33c.08-.15.15-.25.18-.3l1.92-3Z"/><line class="cls-2" x1="0.07" y1="0.07" x2="0.07" y2="56.59"/><rect x="0.01" y="0.01" width="0.96" height="56.64"/><line class="cls-2" x1="27.69" y1="1.03" x2="27.69" y2="56.59"/><rect x="27.63" y="0.97" width="0.96" height="55.68"/><line class="cls-2" x1="55.29" y1="1.03" x2="55.29" y2="56.59"/><rect x="55.23" y="0.97" width="0.96" height="55.68"/><line class="cls-2" x1="1.03" y1="0.07" x2="56.13" y2="0.07"/><rect x="0.97" y="0.01" width="55.22" height="0.96"/><line class="cls-2" x1="1.03" y1="27.91" x2="56.13" y2="27.91"/><rect x="0.97" y="27.85" width="55.22" height="0.96"/><line class="cls-2" x1="1.03" y1="55.75" x2="56.13" y2="55.75"/><rect x="0.97" y="55.69" width="55.22" height="0.96"/></g></g></svg>