<?xml version="1.0" encoding="UTF-8" standalone="no"?><svg xmlns="http://www.w3.org/2000/svg" xmlns:xlink="http://www.w3.org/1999/xlink" contentScriptType="application/ecmascript" contentStyleType="text/css" height="411px" preserveAspectRatio="none" style="width:440px;height:411px;" version="1.1" viewBox="0 0 440 411" width="440px" zoomAndPan="magnify"><defs><filter height="300%" id="f2ozlobqk8g66" width="300%" x="-1" y="-1"><feGaussianBlur result="blurOut" stdDeviation="2.0"/><feColorMatrix in="blurOut" result="blurOut2" type="matrix" values="0 0 0 0 0 0 0 0 0 0 0 0 0 0 0 0 0 0 .4 0"/><feOffset dx="4.0" dy="4.0" in="blurOut2" result="blurOut3"/><feBlend in="SourceGraphic" in2="blurOut3" mode="normal"/></filter></defs><g><rect fill="#FFFFFF" filter="url(#f2ozlobqk8g66)" height="43.1328" style="stroke: #A80036; stroke-width: 1.0;" width="10" x="185" y="117.4297"/><line style="stroke: #A80036; stroke-width: 1.0; stroke-dasharray: 5.0,5.0;" x1="27" x2="27" y1="86.2969" y2="324.2266"/><line style="stroke: #A80036; stroke-width: 1.0; stroke-dasharray: 5.0,5.0;" x1="190" x2="190" y1="86.2969" y2="324.2266"/><line style="stroke: #A80036; stroke-width: 1.0; stroke-dasharray: 5.0,5.0;" x1="387" x2="387" y1="86.2969" y2="324.2266"/><text fill="#000000" font-family="sans-serif" font-size="14" lengthAdjust="spacingAndGlyphs" textLength="32" x="8" y="82.9951">User</text><ellipse cx="27" cy="13" fill="#FEFECE" filter="url(#f2ozlobqk8g66)" rx="8" ry="8" style="stroke: #A80036; stroke-width: 2.0;"/><path d="M27,21 L27,48 M14,29 L40,29 M27,48 L14,63 M27,48 L40,63 " fill="none" filter="url(#f2ozlobqk8g66)" style="stroke: #A80036; stroke-width: 2.0;"/><text fill="#000000" font-family="sans-serif" font-size="14" lengthAdjust="spacingAndGlyphs" textLength="32" x="8" y="336.2217">User</text><ellipse cx="27" cy="349.5234" fill="#FEFECE" filter="url(#f2ozlobqk8g66)" rx="8" ry="8" style="stroke: #A80036; stroke-width: 2.0;"/><path d="M27,357.5234 L27,384.5234 M14,365.5234 L40,365.5234 M27,384.5234 L14,399.5234 M27,384.5234 L40,399.5234 " fill="none" filter="url(#f2ozlobqk8g66)" style="stroke: #A80036; stroke-width: 2.0;"/><rect fill="#FEFECE" filter="url(#f2ozlobqk8g66)" height="30.2969" style="stroke: #A80036; stroke-width: 1.5;" width="78" x="149" y="51"/><text fill="#000000" font-family="sans-serif" font-size="14" lengthAdjust="spacingAndGlyphs" textLength="64" x="156" y="70.9951">Publisher</text><rect fill="#FEFECE" filter="url(#f2ozlobqk8g66)" height="30.2969" style="stroke: #A80036; stroke-width: 1.5;" width="78" x="149" y="323.2266"/><text fill="#000000" font-family="sans-serif" font-size="14" lengthAdjust="spacingAndGlyphs" textLength="64" x="156" y="343.2217">Publisher</text><rect fill="#FEFECE" filter="url(#f2ozlobqk8g66)" height="30.2969" style="stroke: #A80036; stroke-width: 1.5;" width="88" x="341" y="51"/><text fill="#000000" font-family="sans-serif" font-size="14" lengthAdjust="spacingAndGlyphs" textLength="74" x="348" y="70.9951">Subscriber</text><rect fill="#FEFECE" filter="url(#f2ozlobqk8g66)" height="30.2969" style="stroke: #A80036; stroke-width: 1.5;" width="88" x="341" y="323.2266"/><text fill="#000000" font-family="sans-serif" font-size="14" lengthAdjust="spacingAndGlyphs" textLength="74" x="348" y="343.2217">Subscriber</text><rect fill="#FFFFFF" filter="url(#f2ozlobqk8g66)" height="43.1328" style="stroke: #A80036; stroke-width: 1.0;" width="10" x="185" y="117.4297"/><polygon fill="#A80036" points="173,113.4297,183,117.4297,173,121.4297,177,117.4297" style="stroke: #A80036; stroke-width: 1.0;"/><line style="stroke: #A80036; stroke-width: 1.0;" x1="27" x2="179" y1="117.4297" y2="117.4297"/><text fill="#000000" font-family="sans-serif" font-size="13" lengthAdjust="spacingAndGlyphs" textLength="139" x="34" y="112.3638">Subscribe(subscriber)</text><polygon fill="#A80036" points="375,142.5625,385,146.5625,375,150.5625,379,146.5625" style="stroke: #A80036; stroke-width: 1.0;"/><line style="stroke: #A80036; stroke-width: 1.0;" x1="195" x2="381" y1="146.5625" y2="146.5625"/><text fill="#000000" font-family="sans-serif" font-size="13" lengthAdjust="spacingAndGlyphs" textLength="168" x="202" y="141.4966">OnSubscribe(subscription)</text><polygon fill="#A80036" points="38,156.5625,28,160.5625,38,164.5625,34,160.5625" style="stroke: #A80036; stroke-width: 1.0;"/><line style="stroke: #A80036; stroke-width: 1.0;" x1="32" x2="189" y1="160.5625" y2="160.5625"/><polygon fill="#A80036" points="201,185.6953,191,189.6953,201,193.6953,197,189.6953" style="stroke: #A80036; stroke-width: 1.0;"/><line style="stroke: #A80036; stroke-width: 1.0;" x1="195" x2="386" y1="189.6953" y2="189.6953"/><text fill="#000000" font-family="sans-serif" font-size="13" lengthAdjust="spacingAndGlyphs" textLength="151" x="207" y="184.6294">subscription.Request(1)</text><polygon fill="#A80036" points="375,214.8281,385,218.8281,375,222.8281,379,218.8281" style="stroke: #A80036; stroke-width: 1.0;"/><line style="stroke: #A80036; stroke-width: 1.0;" x1="190" x2="381" y1="218.8281" y2="218.8281"/><text fill="#000000" font-family="sans-serif" font-size="13" lengthAdjust="spacingAndGlyphs" textLength="87" x="197" y="213.7622">OnNext(data)</text><polygon fill="#A80036" points="201,243.9609,191,247.9609,201,251.9609,197,247.9609" style="stroke: #A80036; stroke-width: 1.0;"/><line style="stroke: #A80036; stroke-width: 1.0;" x1="195" x2="386" y1="247.9609" y2="247.9609"/><text fill="#000000" font-family="sans-serif" font-size="13" lengthAdjust="spacingAndGlyphs" textLength="151" x="207" y="242.895">subscription.Request(1)</text><polygon fill="#A80036" points="375,273.0938,385,277.0938,375,281.0938,379,277.0938" style="stroke: #A80036; stroke-width: 1.0;"/><line style="stroke: #A80036; stroke-width: 1.0;" x1="190" x2="381" y1="277.0938" y2="277.0938"/><text fill="#000000" font-family="sans-serif" font-size="13" lengthAdjust="spacingAndGlyphs" textLength="87" x="197" y="272.0278">OnNext(data)</text><polygon fill="#A80036" points="375,302.2266,385,306.2266,375,310.2266,379,306.2266" style="stroke: #A80036; stroke-width: 1.0;"/><line style="stroke: #A80036; stroke-width: 1.0;" x1="190" x2="381" y1="306.2266" y2="306.2266"/><text fill="#000000" font-family="sans-serif" font-size="13" lengthAdjust="spacingAndGlyphs" textLength="90" x="197" y="301.1606">OnComplete()</text><!--
@startuml
actor User
User -> Publisher : Subscribe(subscriber)
activate Publisher

Publisher -> Subscriber : OnSubscribe(subscription)

Publisher -> User
deactivate Publisher

Subscriber -> Publisher : subscription.Request(1)

Publisher -> Subscriber : OnNext(data)

Subscriber -> Publisher : subscription.Request(1)

Publisher -> Subscriber : OnNext(data)

Publisher -> Subscriber : OnComplete()
@enduml

PlantUML version 1.2018.13(Tue Nov 27 02:11:51 JST 2018)
(GPL source distribution)
Java Runtime: OpenJDK Runtime Environment
JVM: OpenJDK 64-Bit Server VM
Java Version: 11.0.13+8-Ubuntu-0ubuntu1.20.04
Operating System: Linux
OS Version: 5.10.60.1-microsoft-standard-WSL2
Default Encoding: UTF-8
Language: en
Country: null
--></g></svg>