<?xml version="1.0" encoding="UTF-8" standalone="no"?><svg xmlns="http://www.w3.org/2000/svg" xmlns:xlink="http://www.w3.org/1999/xlink" contentScriptType="application/ecmascript" contentStyleType="text/css" height="454px" preserveAspectRatio="none" style="width:460px;height:454px;" version="1.1" viewBox="0 0 460 454" width="460px" zoomAndPan="magnify"><defs><filter height="300%" id="f1l1jbglaz2onf" width="300%" x="-1" y="-1"><feGaussianBlur result="blurOut" stdDeviation="2.0"/><feColorMatrix in="blurOut" result="blurOut2" type="matrix" values="0 0 0 0 0 0 0 0 0 0 0 0 0 0 0 0 0 0 .4 0"/><feOffset dx="4.0" dy="4.0" in="blurOut2" result="blurOut3"/><feBlend in="SourceGraphic" in2="blurOut3" mode="normal"/></filter></defs><g><rect fill="#FFFFFF" filter="url(#f1l1jbglaz2onf)" height="86.2656" style="stroke: #A80036; stroke-width: 1.0;" width="10" x="185" y="117.4297"/><rect fill="#FFFFFF" filter="url(#f1l1jbglaz2onf)" height="14" style="stroke: #A80036; stroke-width: 1.0;" width="10" x="288" y="146.5625"/><line style="stroke: #A80036; stroke-width: 1.0; stroke-dasharray: 5.0,5.0;" x1="27" x2="27" y1="86.2969" y2="367.3594"/><line style="stroke: #A80036; stroke-width: 1.0; stroke-dasharray: 5.0,5.0;" x1="190" x2="190" y1="86.2969" y2="367.3594"/><line style="stroke: #A80036; stroke-width: 1.0; stroke-dasharray: 5.0,5.0;" x1="293" x2="293" y1="86.2969" y2="367.3594"/><line style="stroke: #A80036; stroke-width: 1.0; stroke-dasharray: 5.0,5.0;" x1="407" x2="407" y1="86.2969" y2="367.3594"/><text fill="#000000" font-family="sans-serif" font-size="14" lengthAdjust="spacingAndGlyphs" textLength="32" x="8" y="82.9951">User</text><ellipse cx="27" cy="13" fill="#FEFECE" filter="url(#f1l1jbglaz2onf)" rx="8" ry="8" style="stroke: #A80036; stroke-width: 2.0;"/><path d="M27,21 L27,48 M14,29 L40,29 M27,48 L14,63 M27,48 L40,63 " fill="none" filter="url(#f1l1jbglaz2onf)" style="stroke: #A80036; stroke-width: 2.0;"/><text fill="#000000" font-family="sans-serif" font-size="14" lengthAdjust="spacingAndGlyphs" textLength="32" x="8" y="379.3545">User</text><ellipse cx="27" cy="392.6563" fill="#FEFECE" filter="url(#f1l1jbglaz2onf)" rx="8" ry="8" style="stroke: #A80036; stroke-width: 2.0;"/><path d="M27,400.6563 L27,427.6563 M14,408.6563 L40,408.6563 M27,427.6563 L14,442.6563 M27,427.6563 L40,442.6563 " fill="none" filter="url(#f1l1jbglaz2onf)" style="stroke: #A80036; stroke-width: 2.0;"/><rect fill="#FEFECE" filter="url(#f1l1jbglaz2onf)" height="30.2969" style="stroke: #A80036; stroke-width: 1.5;" width="78" x="149" y="51"/><text fill="#000000" font-family="sans-serif" font-size="14" lengthAdjust="spacingAndGlyphs" textLength="64" x="156" y="70.9951">Publisher</text><rect fill="#FEFECE" filter="url(#f1l1jbglaz2onf)" height="30.2969" style="stroke: #A80036; stroke-width: 1.5;" width="78" x="149" y="366.3594"/><text fill="#000000" font-family="sans-serif" font-size="14" lengthAdjust="spacingAndGlyphs" textLength="64" x="156" y="386.3545">Publisher</text><rect fill="#FEFECE" filter="url(#f1l1jbglaz2onf)" height="30.2969" style="stroke: #A80036; stroke-width: 1.5;" width="100" x="241" y="51"/><text fill="#000000" font-family="sans-serif" font-size="14" lengthAdjust="spacingAndGlyphs" textLength="86" x="248" y="70.9951">Subscription</text><rect fill="#FEFECE" filter="url(#f1l1jbglaz2onf)" height="30.2969" style="stroke: #A80036; stroke-width: 1.5;" width="100" x="241" y="366.3594"/><text fill="#000000" font-family="sans-serif" font-size="14" lengthAdjust="spacingAndGlyphs" textLength="86" x="248" y="386.3545">Subscription</text><rect fill="#FEFECE" filter="url(#f1l1jbglaz2onf)" height="30.2969" style="stroke: #A80036; stroke-width: 1.5;" width="88" x="361" y="51"/><text fill="#000000" font-family="sans-serif" font-size="14" lengthAdjust="spacingAndGlyphs" textLength="74" x="368" y="70.9951">Subscriber</text><rect fill="#FEFECE" filter="url(#f1l1jbglaz2onf)" height="30.2969" style="stroke: #A80036; stroke-width: 1.5;" width="88" x="361" y="366.3594"/><text fill="#000000" font-family="sans-serif" font-size="14" lengthAdjust="spacingAndGlyphs" textLength="74" x="368" y="386.3545">Subscriber</text><rect fill="#FFFFFF" filter="url(#f1l1jbglaz2onf)" height="86.2656" style="stroke: #A80036; stroke-width: 1.0;" width="10" x="185" y="117.4297"/><rect fill="#FFFFFF" filter="url(#f1l1jbglaz2onf)" height="14" style="stroke: #A80036; stroke-width: 1.0;" width="10" x="288" y="146.5625"/><polygon fill="#A80036" points="173,113.4297,183,117.4297,173,121.4297,177,117.4297" style="stroke: #A80036; stroke-width: 1.0;"/><line style="stroke: #A80036; stroke-width: 1.0;" x1="27" x2="179" y1="117.4297" y2="117.4297"/><text fill="#000000" font-family="sans-serif" font-size="13" lengthAdjust="spacingAndGlyphs" textLength="139" x="34" y="112.3638">Subscribe(subscriber)</text><polygon fill="#A80036" points="276,142.5625,286,146.5625,276,150.5625,280,146.5625" style="stroke: #A80036; stroke-width: 1.0;"/><line style="stroke: #A80036; stroke-width: 1.0;" x1="195" x2="282" y1="146.5625" y2="146.5625"/><text fill="#000000" font-family="sans-serif" font-size="13" lengthAdjust="spacingAndGlyphs" textLength="25" x="202" y="141.4966">new</text><polygon fill="#A80036" points="206,156.5625,196,160.5625,206,164.5625,202,160.5625" style="stroke: #A80036; stroke-width: 1.0;"/><line style="stroke: #A80036; stroke-width: 1.0;" x1="200" x2="292" y1="160.5625" y2="160.5625"/><polygon fill="#A80036" points="395,185.6953,405,189.6953,395,193.6953,399,189.6953" style="stroke: #A80036; stroke-width: 1.0;"/><line style="stroke: #A80036; stroke-width: 1.0;" x1="195" x2="401" y1="189.6953" y2="189.6953"/><text fill="#000000" font-family="sans-serif" font-size="13" lengthAdjust="spacingAndGlyphs" textLength="168" x="202" y="184.6294">OnSubscribe(subscription)</text><polygon fill="#A80036" points="38,199.6953,28,203.6953,38,207.6953,34,203.6953" style="stroke: #A80036; stroke-width: 1.0;"/><line style="stroke: #A80036; stroke-width: 1.0;" x1="32" x2="189" y1="203.6953" y2="203.6953"/><polygon fill="#A80036" points="304,228.8281,294,232.8281,304,236.8281,300,232.8281" style="stroke: #A80036; stroke-width: 1.0;"/><line style="stroke: #A80036; stroke-width: 1.0;" x1="298" x2="406" y1="232.8281" y2="232.8281"/><text fill="#000000" font-family="sans-serif" font-size="13" lengthAdjust="spacingAndGlyphs" textLength="70" x="310" y="227.7622">Request(1)</text><polygon fill="#A80036" points="395,257.9609,405,261.9609,395,265.9609,399,261.9609" style="stroke: #A80036; stroke-width: 1.0;"/><line style="stroke: #A80036; stroke-width: 1.0;" x1="293" x2="401" y1="261.9609" y2="261.9609"/><text fill="#000000" font-family="sans-serif" font-size="13" lengthAdjust="spacingAndGlyphs" textLength="87" x="300" y="256.895">OnNext(data)</text><polygon fill="#A80036" points="304,287.0938,294,291.0938,304,295.0938,300,291.0938" style="stroke: #A80036; stroke-width: 1.0;"/><line style="stroke: #A80036; stroke-width: 1.0;" x1="298" x2="406" y1="291.0938" y2="291.0938"/><text fill="#000000" font-family="sans-serif" font-size="13" lengthAdjust="spacingAndGlyphs" textLength="70" x="310" y="286.0278">Request(1)</text><polygon fill="#A80036" points="395,316.2266,405,320.2266,395,324.2266,399,320.2266" style="stroke: #A80036; stroke-width: 1.0;"/><line style="stroke: #A80036; stroke-width: 1.0;" x1="293" x2="401" y1="320.2266" y2="320.2266"/><text fill="#000000" font-family="sans-serif" font-size="13" lengthAdjust="spacingAndGlyphs" textLength="87" x="300" y="315.1606">OnNext(data)</text><polygon fill="#A80036" points="395,345.3594,405,349.3594,395,353.3594,399,349.3594" style="stroke: #A80036; stroke-width: 1.0;"/><line style="stroke: #A80036; stroke-width: 1.0;" x1="293" x2="401" y1="349.3594" y2="349.3594"/><text fill="#000000" font-family="sans-serif" font-size="13" lengthAdjust="spacingAndGlyphs" textLength="90" x="300" y="344.2935">OnComplete()</text><!--
@startuml
actor User
User -> Publisher : Subscribe(subscriber)
activate Publisher

Publisher -> Subscription : new
activate Subscription
Subscription -> Publisher
deactivate Subscription

Publisher -> Subscriber : OnSubscribe(subscription)

Publisher -> User
deactivate Publisher

Subscriber -> Subscription : Request(1)

Subscription -> Subscriber : OnNext(data)

Subscriber -> Subscription : Request(1)

Subscription -> Subscriber : OnNext(data)

Subscription -> Subscriber : OnComplete()
@enduml

PlantUML version 1.2018.13(Tue Nov 27 02:11:51 JST 2018)
(GPL source distribution)
Java Runtime: OpenJDK Runtime Environment
JVM: OpenJDK 64-Bit Server VM
Java Version: 11.0.13+8-Ubuntu-0ubuntu1.20.04
Operating System: Linux
OS Version: 5.10.60.1-microsoft-standard-WSL2
Default Encoding: UTF-8
Language: en
Country: null
--></g></svg>