<?xml version="1.0" encoding="UTF-8" standalone="no"?><svg xmlns="http://www.w3.org/2000/svg" xmlns:xlink="http://www.w3.org/1999/xlink" contentScriptType="application/ecmascript" contentStyleType="text/css" height="440px" preserveAspectRatio="none" style="width:338px;height:440px;" version="1.1" viewBox="0 0 338 440" width="338px" zoomAndPan="magnify"><defs><filter height="300%" id="fmeyv3ff6zcmc" width="300%" x="-1" y="-1"><feGaussianBlur result="blurOut" stdDeviation="2.0"/><feColorMatrix in="blurOut" result="blurOut2" type="matrix" values="0 0 0 0 0 0 0 0 0 0 0 0 0 0 0 0 0 0 .4 0"/><feOffset dx="4.0" dy="4.0" in="blurOut2" result="blurOut3"/><feBlend in="SourceGraphic" in2="blurOut3" mode="normal"/></filter></defs><g><rect fill="#FFFFFF" filter="url(#fmeyv3ff6zcmc)" height="14" style="stroke: #A80036; stroke-width: 1.0;" width="10" x="135" y="117.4297"/><rect fill="#FFFFFF" filter="url(#fmeyv3ff6zcmc)" height="29.1328" style="stroke: #A80036; stroke-width: 1.0;" width="10" x="135" y="277.0938"/><rect fill="#FFFFFF" filter="url(#fmeyv3ff6zcmc)" height="29.1328" style="stroke: #A80036; stroke-width: 1.0;" width="10" x="295" y="160.5625"/><rect fill="#FFFFFF" filter="url(#fmeyv3ff6zcmc)" height="29.1328" style="stroke: #A80036; stroke-width: 1.0;" width="10" x="295" y="218.8281"/><line style="stroke: #A80036; stroke-width: 1.0; stroke-dasharray: 5.0,5.0;" x1="27" x2="27" y1="86.2969" y2="353.3594"/><line style="stroke: #A80036; stroke-width: 1.0; stroke-dasharray: 5.0,5.0;" x1="139.5" x2="139.5" y1="86.2969" y2="353.3594"/><line style="stroke: #A80036; stroke-width: 1.0; stroke-dasharray: 5.0,5.0;" x1="299.5" x2="299.5" y1="86.2969" y2="353.3594"/><text fill="#000000" font-family="sans-serif" font-size="14" lengthAdjust="spacingAndGlyphs" textLength="32" x="8" y="82.9951">User</text><ellipse cx="27" cy="13" fill="#FEFECE" filter="url(#fmeyv3ff6zcmc)" rx="8" ry="8" style="stroke: #A80036; stroke-width: 2.0;"/><path d="M27,21 L27,48 M14,29 L40,29 M27,48 L14,63 M27,48 L40,63 " fill="none" filter="url(#fmeyv3ff6zcmc)" style="stroke: #A80036; stroke-width: 2.0;"/><text fill="#000000" font-family="sans-serif" font-size="14" lengthAdjust="spacingAndGlyphs" textLength="32" x="8" y="365.3545">User</text><ellipse cx="27" cy="378.6563" fill="#FEFECE" filter="url(#fmeyv3ff6zcmc)" rx="8" ry="8" style="stroke: #A80036; stroke-width: 2.0;"/><path d="M27,386.6563 L27,413.6563 M14,394.6563 L40,394.6563 M27,413.6563 L14,428.6563 M27,413.6563 L40,428.6563 " fill="none" filter="url(#fmeyv3ff6zcmc)" style="stroke: #A80036; stroke-width: 2.0;"/><rect fill="#FEFECE" filter="url(#fmeyv3ff6zcmc)" height="30.2969" style="stroke: #A80036; stroke-width: 1.5;" width="63" x="106.5" y="51"/><text fill="#000000" font-family="sans-serif" font-size="14" lengthAdjust="spacingAndGlyphs" textLength="49" x="113.5" y="70.9951">Source</text><rect fill="#FEFECE" filter="url(#fmeyv3ff6zcmc)" height="30.2969" style="stroke: #A80036; stroke-width: 1.5;" width="63" x="106.5" y="352.3594"/><text fill="#000000" font-family="sans-serif" font-size="14" lengthAdjust="spacingAndGlyphs" textLength="49" x="113.5" y="372.3545">Source</text><rect fill="#FEFECE" filter="url(#fmeyv3ff6zcmc)" height="30.2969" style="stroke: #A80036; stroke-width: 1.5;" width="59" x="268.5" y="51"/><text fill="#000000" font-family="sans-serif" font-size="14" lengthAdjust="spacingAndGlyphs" textLength="45" x="275.5" y="70.9951">Target</text><rect fill="#FEFECE" filter="url(#fmeyv3ff6zcmc)" height="30.2969" style="stroke: #A80036; stroke-width: 1.5;" width="59" x="268.5" y="352.3594"/><text fill="#000000" font-family="sans-serif" font-size="14" lengthAdjust="spacingAndGlyphs" textLength="45" x="275.5" y="372.3545">Target</text><rect fill="#FFFFFF" filter="url(#fmeyv3ff6zcmc)" height="14" style="stroke: #A80036; stroke-width: 1.0;" width="10" x="135" y="117.4297"/><rect fill="#FFFFFF" filter="url(#fmeyv3ff6zcmc)" height="29.1328" style="stroke: #A80036; stroke-width: 1.0;" width="10" x="135" y="277.0938"/><rect fill="#FFFFFF" filter="url(#fmeyv3ff6zcmc)" height="29.1328" style="stroke: #A80036; stroke-width: 1.0;" width="10" x="295" y="160.5625"/><rect fill="#FFFFFF" filter="url(#fmeyv3ff6zcmc)" height="29.1328" style="stroke: #A80036; stroke-width: 1.0;" width="10" x="295" y="218.8281"/><polygon fill="#A80036" points="123,113.4297,133,117.4297,123,121.4297,127,117.4297" style="stroke: #A80036; stroke-width: 1.0;"/><line style="stroke: #A80036; stroke-width: 1.0;" x1="27" x2="129" y1="117.4297" y2="117.4297"/><text fill="#000000" font-family="sans-serif" font-size="13" lengthAdjust="spacingAndGlyphs" textLength="89" x="34" y="112.3638">LinkTo(target)</text><polygon fill="#A80036" points="38,127.4297,28,131.4297,38,135.4297,34,131.4297" style="stroke: #A80036; stroke-width: 1.0;"/><line style="stroke: #A80036; stroke-width: 1.0;" x1="32" x2="139" y1="131.4297" y2="131.4297"/><polygon fill="#A80036" points="283,156.5625,293,160.5625,283,164.5625,287,160.5625" style="stroke: #A80036; stroke-width: 1.0;"/><line style="stroke: #A80036; stroke-width: 1.0;" x1="140" x2="289" y1="160.5625" y2="160.5625"/><text fill="#000000" font-family="sans-serif" font-size="13" lengthAdjust="spacingAndGlyphs" textLength="106" x="147" y="155.4966">OfferMessage(1)</text><polygon fill="#A80036" points="151,185.6953,141,189.6953,151,193.6953,147,189.6953" style="stroke: #A80036; stroke-width: 1.0;"/><line style="stroke: #A80036; stroke-width: 1.0;" x1="145" x2="299" y1="189.6953" y2="189.6953"/><text fill="#000000" font-family="sans-serif" font-size="13" lengthAdjust="spacingAndGlyphs" textLength="60" x="157" y="184.6294">Accepted</text><polygon fill="#A80036" points="283,214.8281,293,218.8281,283,222.8281,287,218.8281" style="stroke: #A80036; stroke-width: 1.0;"/><line style="stroke: #A80036; stroke-width: 1.0;" x1="140" x2="289" y1="218.8281" y2="218.8281"/><text fill="#000000" font-family="sans-serif" font-size="13" lengthAdjust="spacingAndGlyphs" textLength="106" x="147" y="213.7622">OfferMessage(2)</text><polygon fill="#A80036" points="151,243.9609,141,247.9609,151,251.9609,147,247.9609" style="stroke: #A80036; stroke-width: 1.0;"/><line style="stroke: #A80036; stroke-width: 1.0;" x1="145" x2="299" y1="247.9609" y2="247.9609"/><text fill="#000000" font-family="sans-serif" font-size="13" lengthAdjust="spacingAndGlyphs" textLength="68" x="157" y="242.895">Postponed</text><polygon fill="#A80036" points="156,273.0938,146,277.0938,156,281.0938,152,277.0938" style="stroke: #A80036; stroke-width: 1.0;"/><line style="stroke: #A80036; stroke-width: 1.0;" x1="150" x2="299" y1="277.0938" y2="277.0938"/><text fill="#000000" font-family="sans-serif" font-size="13" lengthAdjust="spacingAndGlyphs" textLength="136" x="162" y="272.0278">ConsumeMessage(2)</text><polygon fill="#A80036" points="288,302.2266,298,306.2266,288,310.2266,292,306.2266" style="stroke: #A80036; stroke-width: 1.0;"/><line style="stroke: #A80036; stroke-width: 1.0;" x1="140" x2="294" y1="306.2266" y2="306.2266"/><text fill="#000000" font-family="sans-serif" font-size="13" lengthAdjust="spacingAndGlyphs" textLength="29" x="147" y="301.1606">data</text><polygon fill="#A80036" points="288,331.3594,298,335.3594,288,339.3594,292,335.3594" style="stroke: #A80036; stroke-width: 1.0;"/><line style="stroke: #A80036; stroke-width: 1.0;" x1="140" x2="294" y1="335.3594" y2="335.3594"/><text fill="#000000" font-family="sans-serif" font-size="13" lengthAdjust="spacingAndGlyphs" textLength="72" x="147" y="330.2935">Complete()</text><!--
@startuml
Actor User

User -> Source : LinkTo(target)
activate Source
Source -> User
deactivate Source

Source -> Target : OfferMessage(1)
activate Target
Target -> Source : Accepted
deactivate Target
Source -> Target : OfferMessage(2)
activate Target
Target -> Source : Postponed
deactivate Target

Target -> Source : ConsumeMessage(2)
activate Source
Source -> Target : data
deactivate Source

Source -> Target : Complete()
@enduml

PlantUML version 1.2018.13(Tue Nov 27 02:11:51 JST 2018)
(GPL source distribution)
Java Runtime: OpenJDK Runtime Environment
JVM: OpenJDK 64-Bit Server VM
Java Version: 11.0.13+8-Ubuntu-0ubuntu1.20.04
Operating System: Linux
OS Version: 5.10.60.1-microsoft-standard-WSL2
Default Encoding: UTF-8
Language: en
Country: null
--></g></svg>