<?xml version="1.0" encoding="UTF-8" standalone="no"?>
<!DOCTYPE svg PUBLIC "-//W3C//DTD SVG 1.1//EN"
 "http://www.w3.org/Graphics/SVG/1.1/DTD/svg11.dtd">
<!-- Generated by graphviz version 2.43.0 (0)
 -->
<!-- Title: %3 Pages: 1 -->
<svg width="424pt" height="218pt"
 viewBox="0.00 0.00 424.39 218.00" xmlns="http://www.w3.org/2000/svg" xmlns:xlink="http://www.w3.org/1999/xlink">
<g id="graph0" class="graph" transform="scale(1 1) rotate(0) translate(4 214)">
<title>%3</title>
<polygon fill="white" stroke="transparent" points="-4,4 -4,-214 420.39,-214 420.39,4 -4,4"/>
<!-- 条件A -->
<g id="node1" class="node">
<title>条件A</title>
<polygon fill="none" stroke="black" points="267.2,-210 139.2,-210 139.2,-174 267.2,-174 267.2,-210"/>
<text text-anchor="middle" x="203.2" y="-188.3" font-family="Times,serif" font-size="14.00">プロパティA &gt; X</text>
</g>
<!-- 条件B -->
<g id="node2" class="node">
<title>条件B</title>
<polygon fill="none" stroke="black" points="194.2,-123 66.2,-123 66.2,-87 194.2,-87 194.2,-123"/>
<text text-anchor="middle" x="130.2" y="-101.3" font-family="Times,serif" font-size="14.00">プロパティB &gt; Y</text>
</g>
<!-- 条件A&#45;&gt;条件B -->
<g id="edge1" class="edge">
<title>条件A&#45;&gt;条件B</title>
<path fill="none" stroke="black" d="M188.42,-173.8C177.84,-161.47 163.41,-144.68 151.57,-130.89"/>
<polygon fill="black" stroke="black" points="154.12,-128.48 144.95,-123.18 148.81,-133.04 154.12,-128.48"/>
<text text-anchor="middle" x="181.7" y="-144.8" font-family="Times,serif" font-size="14.00">No</text>
</g>
<!-- 条件C -->
<g id="node3" class="node">
<title>条件C</title>
<polygon fill="none" stroke="black" points="341.7,-123 212.7,-123 212.7,-87 341.7,-87 341.7,-123"/>
<text text-anchor="middle" x="277.2" y="-101.3" font-family="Times,serif" font-size="14.00">プロパティC &gt; Z</text>
</g>
<!-- 条件A&#45;&gt;条件C -->
<g id="edge2" class="edge">
<title>条件A&#45;&gt;条件C</title>
<path fill="none" stroke="black" d="M218.17,-173.8C228.9,-161.47 243.52,-144.68 255.53,-130.89"/>
<polygon fill="black" stroke="black" points="258.32,-133.02 262.24,-123.18 253.04,-128.42 258.32,-133.02"/>
<text text-anchor="middle" x="257.7" y="-144.8" font-family="Times,serif" font-size="14.00">Yes</text>
</g>
<!-- 確率表1 -->
<g id="node4" class="node">
<title>確率表1</title>
<ellipse fill="none" stroke="black" cx="44.2" cy="-18" rx="44.39" ry="18"/>
<text text-anchor="middle" x="44.2" y="-14.3" font-family="Times,serif" font-size="14.00">確率表1</text>
</g>
<!-- 条件B&#45;&gt;確率表1 -->
<g id="edge3" class="edge">
<title>条件B&#45;&gt;確率表1</title>
<path fill="none" stroke="black" d="M112.79,-86.8C99.87,-74.03 82.1,-56.47 67.89,-42.42"/>
<polygon fill="black" stroke="black" points="69.98,-39.57 60.41,-35.03 65.06,-44.54 69.98,-39.57"/>
<text text-anchor="middle" x="103.7" y="-57.8" font-family="Times,serif" font-size="14.00">No</text>
</g>
<!-- 確率表2 -->
<g id="node5" class="node">
<title>確率表2</title>
<ellipse fill="none" stroke="black" cx="150.2" cy="-18" rx="44.39" ry="18"/>
<text text-anchor="middle" x="150.2" y="-14.3" font-family="Times,serif" font-size="14.00">確率表2</text>
</g>
<!-- 条件B&#45;&gt;確率表2 -->
<g id="edge4" class="edge">
<title>条件B&#45;&gt;確率表2</title>
<path fill="none" stroke="black" d="M134.24,-86.8C136.98,-75.16 140.66,-59.55 143.79,-46.24"/>
<polygon fill="black" stroke="black" points="147.27,-46.71 146.15,-36.18 140.46,-45.11 147.27,-46.71"/>
<text text-anchor="middle" x="154.7" y="-57.8" font-family="Times,serif" font-size="14.00">Yes</text>
</g>
<!-- 確率表3 -->
<g id="node6" class="node">
<title>確率表3</title>
<ellipse fill="none" stroke="black" cx="266.2" cy="-18" rx="44.39" ry="18"/>
<text text-anchor="middle" x="266.2" y="-14.3" font-family="Times,serif" font-size="14.00">確率表3</text>
</g>
<!-- 条件C&#45;&gt;確率表3 -->
<g id="edge5" class="edge">
<title>条件C&#45;&gt;確率表3</title>
<path fill="none" stroke="black" d="M274.97,-86.8C273.46,-75.16 271.44,-59.55 269.72,-46.24"/>
<polygon fill="black" stroke="black" points="273.17,-45.64 268.42,-36.18 266.23,-46.54 273.17,-45.64"/>
<text text-anchor="middle" x="283.7" y="-57.8" font-family="Times,serif" font-size="14.00">No</text>
</g>
<!-- 確率表4 -->
<g id="node7" class="node">
<title>確率表4</title>
<ellipse fill="none" stroke="black" cx="372.2" cy="-18" rx="44.39" ry="18"/>
<text text-anchor="middle" x="372.2" y="-14.3" font-family="Times,serif" font-size="14.00">確率表4</text>
</g>
<!-- 条件C&#45;&gt;確率表4 -->
<g id="edge6" class="edge">
<title>条件C&#45;&gt;確率表4</title>
<path fill="none" stroke="black" d="M296.42,-86.8C310.92,-73.83 330.94,-55.91 346.76,-41.76"/>
<polygon fill="black" stroke="black" points="349.48,-44.02 354.6,-34.74 344.82,-38.8 349.48,-44.02"/>
<text text-anchor="middle" x="342.7" y="-57.8" font-family="Times,serif" font-size="14.00">Yes</text>
</g>
</g>
</svg>
