<svg xmlns="http://www.w3.org/2000/svg" viewBox="0 0 111.4 112.37"><defs><style>.cls-1{fill:#fff;}.cls-2{fill:#d9d9d9;}.cls-3{font-size:12px;font-family:YuGothic-Regular, Yu Gothic;}.cls-4{fill:none;stroke:#000;stroke-linecap:square;stroke-linejoin:round;stroke-width:0.14px;}</style></defs><g id="レイヤー_2" data-name="レイヤー 2"><g id="レイヤー_1-2" data-name="レイヤー 1"><rect class="cls-1" x="0.49" y="0.5" width="110.54" height="27.98"/><rect class="cls-2" x="0.49" y="28.36" width="110.54" height="27.96"/><rect class="cls-1" x="0.49" y="56.2" width="110.54" height="27.96"/><rect class="cls-2" x="0.49" y="84.04" width="110.54" height="27.96"/><text class="cls-3" transform="translate(8.77 18.64)">済</text><text class="cls-3" transform="translate(36.39 18.64)">済</text><path d="M69.41,9.63v.68H66.59v8.07H65.8V10.31H63V9.63Zm7.56,0v.68H74.15v8.07h-.79V10.31H70.55V9.63Z"/><text class="cls-3" transform="translate(91.59 18.64)">済</text><text class="cls-3" transform="translate(8.77 46.48)">済</text><path d="M41.93,37.47v.68H39.11v8.07h-.79V38.15H35.51v-.68Zm2.72,0v8.06h4.46v.69H43.86V37.47Z"/><polygon points="73.13 37.47 73.13 38.15 70.31 38.15 70.31 46.22 69.52 46.22 69.52 38.15 66.71 38.15 66.71 37.47 73.13 37.47"/><path d="M96.77,37.47v.68H94v8.07h-.79V38.15H90.35v-.68Zm1.93,0h2.87c2,0,3,.75,3,2.24a2,2,0,0,1-.55,1.47,2.52,2.52,0,0,1-1.37.73l2.14,4.31h-.87l-2-4.19H99.48v4.18H98.7Zm.78.66v3.26h2c1.5,0,2.26-.55,2.26-1.67a1.36,1.36,0,0,0-.57-1.23,3,3,0,0,0-1.62-.36Z"/><path d="M9.71,65.31v8.06h4.46v.69H8.92V65.31Zm7.2,0v8.06h4.46v.69H16.12V65.31Z"/><polygon points="40.94 65.31 40.94 73.37 45.39 73.37 45.39 74.06 40.14 74.06 40.14 65.31 40.94 65.31"/><path d="M73.14,65.31l-2.78,4.2,3,4.55h-.92L70.25,70.7c-.16-.26-.28-.46-.37-.59l-.37.6-2.1,3.35h-.89l2.92-4.53-2.71-4.22h.91l1.91,3,.39.61c.06-.08.13-.19.22-.33s.15-.25.18-.3l1.92-3Z"/><path d="M95.12,67.3a2.65,2.65,0,0,1,1-1.67,2.51,2.51,0,0,1,1.55-.48,2.35,2.35,0,0,1,1.74.65,2,2,0,0,1,.57,1.45,2.11,2.11,0,0,1-.31,1.13,6.54,6.54,0,0,1-1,1.08,2.54,2.54,0,0,0-.73,1,3.77,3.77,0,0,0-.16,1.19h-.61v-.3A3,3,0,0,1,97.4,70a3.22,3.22,0,0,1,.7-.91A4.43,4.43,0,0,0,99,68a1.73,1.73,0,0,0,.17-.78,1.36,1.36,0,0,0-.46-1.09,1.57,1.57,0,0,0-1-.35c-1,0-1.59.56-1.76,1.68Zm2.95,5.58v1.18H96.88V72.88Z"/><text class="cls-3" transform="translate(8.77 102.16)">済</text><path d="M36.06,93.15h2.8a3.44,3.44,0,0,1,2.3.62,1.92,1.92,0,0,1,.58,1.51,1.74,1.74,0,0,1-.61,1.37,2.65,2.65,0,0,1-1.37.58v.06a2.67,2.67,0,0,1,1.74.78A2,2,0,0,1,42,99.46a2.16,2.16,0,0,1-.91,1.88,3.51,3.51,0,0,1-2.08.56h-3Zm.78.66v3.13h1.71a3,3,0,0,0,1.85-.5,1.36,1.36,0,0,0,.53-1.12,1.31,1.31,0,0,0-.54-1.19,3.24,3.24,0,0,0-1.64-.32Zm0,3.79v3.63h2.08c1.51,0,2.27-.6,2.27-1.79a1.56,1.56,0,0,0-.75-1.39,3.33,3.33,0,0,0-1.85-.45ZM45,93.15v8.06h4.46v.69H44.22V93.15Z"/><path d="M67.26,93.15h2.8a3.44,3.44,0,0,1,2.3.62,1.92,1.92,0,0,1,.58,1.51,1.74,1.74,0,0,1-.61,1.37,2.65,2.65,0,0,1-1.37.58v.06a2.67,2.67,0,0,1,1.74.78,2,2,0,0,1,.52,1.39,2.16,2.16,0,0,1-.91,1.88,3.51,3.51,0,0,1-2.08.56h-3Zm.78.66v3.13h1.71a3,3,0,0,0,1.85-.5,1.36,1.36,0,0,0,.53-1.12,1.31,1.31,0,0,0-.54-1.19A3.24,3.24,0,0,0,70,93.81Zm0,3.79v3.63h2.08c1.51,0,2.27-.6,2.27-1.79a1.56,1.56,0,0,0-.75-1.39,3.33,3.33,0,0,0-1.85-.45Z"/><path d="M90.78,93.15h2.8a3.44,3.44,0,0,1,2.3.62,1.92,1.92,0,0,1,.58,1.51,1.74,1.74,0,0,1-.61,1.37,2.65,2.65,0,0,1-1.37.58v.06a2.67,2.67,0,0,1,1.74.78,2,2,0,0,1,.52,1.39,2.16,2.16,0,0,1-.91,1.88,3.51,3.51,0,0,1-2.08.56h-3Zm.78.66v3.13h1.71a3,3,0,0,0,1.85-.5,1.36,1.36,0,0,0,.53-1.12,1.31,1.31,0,0,0-.54-1.19,3.24,3.24,0,0,0-1.64-.32Zm0,3.79v3.63h2.08c1.51,0,2.27-.6,2.27-1.79a1.56,1.56,0,0,0-.75-1.39,3.33,3.33,0,0,0-1.85-.45Zm7.38-4.45h2.87c2,0,3,.75,3,2.24a2,2,0,0,1-.55,1.47,2.52,2.52,0,0,1-1.37.73L105,101.9h-.87l-2-4.19H99.72v4.18h-.78Zm.78.66v3.26h2c1.5,0,2.26-.55,2.26-1.67a1.36,1.36,0,0,0-.57-1.23,3,3,0,0,0-1.62-.36Z"/><line class="cls-4" x1="0.07" y1="0.07" x2="0.07" y2="112.3"/><rect x="0.01" y="0.02" width="0.96" height="112.34"/><line class="cls-4" x1="27.69" y1="1.03" x2="27.69" y2="112.3"/><rect x="27.63" y="0.98" width="0.96" height="111.38"/><line class="cls-4" x1="55.29" y1="1.03" x2="55.29" y2="112.3"/><rect x="55.23" y="0.98" width="0.96" height="111.38"/><line class="cls-4" x1="82.89" y1="1.03" x2="82.89" y2="112.3"/><rect x="82.83" y="0.98" width="0.96" height="111.38"/><line class="cls-4" x1="110.49" y1="1.03" x2="110.49" y2="112.3"/><rect x="110.43" y="0.98" width="0.96" height="111.38"/><line class="cls-4" x1="1.03" y1="0.07" x2="111.33" y2="0.07"/><rect x="0.97" y="0.01" width="110.42" height="0.96"/><line class="cls-4" x1="1.03" y1="27.94" x2="111.33" y2="27.94"/><rect x="0.97" y="27.88" width="110.42" height="0.96"/><line class="cls-4" x1="1.03" y1="55.78" x2="111.33" y2="55.78"/><rect x="0.97" y="55.72" width="110.42" height="0.96"/><line class="cls-4" x1="1.03" y1="83.62" x2="111.33" y2="83.62"/><rect x="0.97" y="83.56" width="110.42" height="0.96"/><line class="cls-4" x1="1.03" y1="111.46" x2="111.33" y2="111.46"/><rect x="0.97" y="111.4" width="110.42" height="0.96"/></g></g></svg>