<svg xmlns="http://www.w3.org/2000/svg" xmlns:xlink="http://www.w3.org/1999/xlink" viewBox="0 0 111.4 112.36"><defs><style>.cls-1,.cls-6{fill:none;}.cls-1{clip-rule:evenodd;}.cls-2{clip-path:url(#clip-path);}.cls-3{fill:#fff;}.cls-4{fill:#d9d9d9;}.cls-5{font-size:12px;font-family:YuGothic-Regular, Yu Gothic;}.cls-6{stroke:#000;stroke-linecap:square;stroke-linejoin:round;stroke-width:0.14px;}</style><clipPath id="clip-path" transform="translate(-26.63 -388.84)"><polyline class="cls-1" points="0 501.19 138.02 501.19 138.02 0 0 0"/></clipPath></defs><g id="レイヤー_2" data-name="レイヤー 2"><g id="レイヤー_1-2" data-name="レイヤー 1"><g class="cls-2"><rect class="cls-3" x="0.49" y="0.49" width="27.74" height="111.5"/><rect class="cls-4" x="28.11" y="0.49" width="27.72" height="111.5"/><rect class="cls-3" x="55.71" y="0.49" width="27.72" height="111.5"/><rect class="cls-4" x="83.31" y="0.49" width="27.72" height="111.5"/><text class="cls-5" transform="translate(8.77 18.61)">済</text><text class="cls-5" transform="translate(36.39 18.61)">済</text><path d="M96,398.44v.68H93.22v8.07h-.79v-8.07H89.62v-.68Zm7.56,0v.68h-2.82v8.07H100v-8.07H97.18v-.68Z" transform="translate(-26.63 -388.84)"/><text class="cls-5" transform="translate(91.59 18.61)">済</text><text class="cls-5" transform="translate(8.77 46.45)">済</text><path d="M68.56,426.28V427H65.74V435H65V427H62.14v-.68Zm2.72,0v8.06h4.46V435H70.49v-8.75Z" transform="translate(-26.63 -388.84)"/><polygon points="73.13 37.44 73.13 38.12 70.31 38.12 70.31 46.19 69.52 46.19 69.52 38.12 66.71 38.12 66.71 37.44 73.13 37.44"/><path d="M123.4,426.28V427h-2.82V435h-.79V427H117v-.68Zm1.93,0h2.87c2,0,3,.75,3,2.24a2,2,0,0,1-.55,1.47,2.52,2.52,0,0,1-1.37.73l2.14,4.31h-.87l-2-4.19h-2.38V435h-.78Zm.78.66v3.26h2c1.5,0,2.26-.55,2.26-1.67a1.36,1.36,0,0,0-.57-1.23,3,3,0,0,0-1.62-.36Z" transform="translate(-26.63 -388.84)"/><path d="M36.34,454.14v8.06H40.8v.69H35.55v-8.75Zm7.2,0v8.06H48v.69H42.75v-8.75Z" transform="translate(-26.63 -388.84)"/><polygon points="40.94 65.3 40.94 73.36 45.39 73.36 45.39 74.05 40.14 74.05 40.14 65.3 40.94 65.3"/><path d="M99.77,454.14,97,458.34l3,4.55H99l-2.14-3.36c-.16-.26-.28-.46-.37-.59l-.37.6L94,462.89h-.89l2.92-4.53-2.71-4.22h.91l1.91,3,.39.61.22-.33c.08-.15.15-.25.18-.3l1.92-3Z" transform="translate(-26.63 -388.84)"/><path d="M121.49,454.14h2.87c2,0,3,.75,3,2.24a2,2,0,0,1-.55,1.47,2.52,2.52,0,0,1-1.37.73l2.14,4.31h-.87l-2-4.19h-2.38v4.18h-.78Zm.78.66v3.26h2c1.5,0,2.26-.55,2.26-1.67a1.36,1.36,0,0,0-.57-1.23,3,3,0,0,0-1.62-.36Z" transform="translate(-26.63 -388.84)"/><path d="M38.93,484a2.65,2.65,0,0,1,1-1.67,2.51,2.51,0,0,1,1.55-.48,2.35,2.35,0,0,1,1.74.65,2,2,0,0,1,.57,1.45,2.11,2.11,0,0,1-.31,1.13,6.54,6.54,0,0,1-1,1.08,2.54,2.54,0,0,0-.73,1,3.77,3.77,0,0,0-.16,1.19H41V488a3,3,0,0,1,.24-1.31,3.22,3.22,0,0,1,.7-.91,4.43,4.43,0,0,0,.88-1.06,1.73,1.73,0,0,0,.17-.78,1.36,1.36,0,0,0-.46-1.09,1.57,1.57,0,0,0-1-.35c-1,0-1.59.56-1.76,1.68Zm3,5.58v1.18H40.69v-1.18Z" transform="translate(-26.63 -388.84)"/><path d="M62.69,482h2.8a3.44,3.44,0,0,1,2.3.62,1.92,1.92,0,0,1,.58,1.51,1.74,1.74,0,0,1-.61,1.37,2.65,2.65,0,0,1-1.37.58v.06a2.67,2.67,0,0,1,1.74.78,2,2,0,0,1,.52,1.39,2.16,2.16,0,0,1-.91,1.88,3.51,3.51,0,0,1-2.08.56h-3Zm.78.66v3.13h1.71a3,3,0,0,0,1.85-.5,1.36,1.36,0,0,0,.53-1.12A1.31,1.31,0,0,0,67,483a3.24,3.24,0,0,0-1.64-.32Zm0,3.79v3.63h2.08c1.51,0,2.27-.6,2.27-1.79a1.56,1.56,0,0,0-.75-1.39,3.33,3.33,0,0,0-1.85-.45ZM71.64,482V490H76.1v.69H70.85V482Z" transform="translate(-26.63 -388.84)"/><path d="M94.15,484a2.65,2.65,0,0,1,1-1.67,2.51,2.51,0,0,1,1.55-.48,2.35,2.35,0,0,1,1.74.65,2,2,0,0,1,.57,1.45,2.11,2.11,0,0,1-.31,1.13,6.54,6.54,0,0,1-1,1.08,2.54,2.54,0,0,0-.73,1,3.77,3.77,0,0,0-.16,1.19h-.61V488a3,3,0,0,1,.24-1.31,3.22,3.22,0,0,1,.7-.91A4.43,4.43,0,0,0,98,484.7a1.73,1.73,0,0,0,.17-.78,1.36,1.36,0,0,0-.46-1.09,1.57,1.57,0,0,0-1-.35c-1,0-1.59.56-1.76,1.68Zm2.95,5.58v1.18H95.91v-1.18Z" transform="translate(-26.63 -388.84)"/><path d="M117.41,482h2.8a3.44,3.44,0,0,1,2.3.62,1.92,1.92,0,0,1,.58,1.51,1.74,1.74,0,0,1-.61,1.37,2.65,2.65,0,0,1-1.37.58v.06a2.67,2.67,0,0,1,1.74.78,2,2,0,0,1,.52,1.39,2.16,2.16,0,0,1-.91,1.88,3.51,3.51,0,0,1-2.08.56h-3Zm.78.66v3.13h1.71a3,3,0,0,0,1.85-.5,1.36,1.36,0,0,0,.53-1.12,1.31,1.31,0,0,0-.54-1.19,3.24,3.24,0,0,0-1.64-.32Zm0,3.79v3.63h2.08c1.51,0,2.27-.6,2.27-1.79a1.56,1.56,0,0,0-.75-1.39,3.33,3.33,0,0,0-1.85-.45Zm7.38-4.45h2.87c2,0,2.95.75,2.95,2.24a2,2,0,0,1-.55,1.47,2.52,2.52,0,0,1-1.37.73l2.14,4.31h-.87l-2-4.19h-2.38v4.18h-.78Zm.78.66v3.26h2c1.5,0,2.26-.55,2.26-1.67A1.36,1.36,0,0,0,130,483a3,3,0,0,0-1.62-.36Z" transform="translate(-26.63 -388.84)"/></g><line class="cls-6" x1="0.07" y1="0.07" x2="0.07" y2="112.29"/><rect x="0.01" y="0.01" width="0.96" height="112.34"/><line class="cls-6" x1="27.69" y1="1.03" x2="27.69" y2="112.29"/><rect x="27.63" y="0.97" width="0.96" height="111.38"/><line class="cls-6" x1="55.29" y1="1.03" x2="55.29" y2="112.29"/><rect x="55.23" y="0.97" width="0.96" height="111.38"/><line class="cls-6" x1="82.89" y1="1.03" x2="82.89" y2="112.29"/><rect x="82.83" y="0.97" width="0.96" height="111.38"/><line class="cls-6" x1="110.49" y1="1.03" x2="110.49" y2="112.29"/><rect x="110.43" y="0.97" width="0.96" height="111.38"/><line class="cls-6" x1="1.03" y1="0.07" x2="111.33" y2="0.07"/><rect x="0.97" y="0.01" width="110.42" height="0.96"/><line class="cls-6" x1="1.03" y1="27.91" x2="111.33" y2="27.91"/><rect x="0.97" y="27.85" width="110.42" height="0.96"/><line class="cls-6" x1="1.03" y1="55.77" x2="111.33" y2="55.77"/><rect x="0.97" y="55.71" width="110.42" height="0.96"/><line class="cls-6" x1="1.03" y1="83.61" x2="111.33" y2="83.61"/><rect x="0.97" y="83.55" width="110.42" height="0.96"/><line class="cls-6" x1="1.03" y1="111.45" x2="111.33" y2="111.45"/><rect x="0.97" y="111.39" width="110.42" height="0.96"/></g></g></svg>